<?xml version="1.0" encoding="UTF-8"?>
<!DOCTYPE svg PUBLIC "-//W3C//DTD SVG 1.1//EN" "http://www.w3.org/Graphics/SVG/1.1/DTD/svg11.dtd">
<svg xmlns="http://www.w3.org/2000/svg" version="1.1" width="500px" height="500px" style="shape-rendering:geometricPrecision; text-rendering:geometricPrecision; image-rendering:optimizeQuality; fill-rule:evenodd; clip-rule:evenodd" xmlns:xlink="http://www.w3.org/1999/xlink">
<g><path style="opacity:0.776" fill="#a4a4a4" d="M 168.5,150.5 C 165.482,150.704 162.482,151.037 159.5,151.5C 162.373,149.518 165.373,149.185 168.5,150.5 Z"/></g>
<g><path style="opacity:1" fill="#090909" d="M 345.5,174.5 C 344.094,174.973 343.427,175.973 343.5,177.5C 320.202,201.299 296.702,224.965 273,248.5C 272.536,249.094 272.369,249.761 272.5,250.5C 274.167,254.167 276.833,256.833 280.5,258.5C 281.5,258.833 282.167,259.5 282.5,260.5C 283.167,263.167 284.833,264.833 287.5,265.5C 288.5,265.833 289.167,266.5 289.5,267.5C 290.833,270.833 293.167,273.167 296.5,274.5C 297.5,274.833 298.167,275.5 298.5,276.5C 299.833,279.833 302.167,282.167 305.5,283.5C 306.5,283.833 307.167,284.5 307.5,285.5C 308.167,288.167 309.833,289.833 312.5,290.5C 313.5,290.833 314.167,291.5 314.5,292.5C 315.833,295.833 318.167,298.167 321.5,299.5C 322.5,299.833 323.167,300.5 323.5,301.5C 324.833,304.833 327.167,307.167 330.5,308.5C 331.5,308.833 332.167,309.5 332.5,310.5C 333.167,313.167 334.833,314.833 337.5,315.5C 338.5,315.833 339.167,316.5 339.5,317.5C 341.094,320.764 343.427,323.431 346.5,325.5C 351.212,333.916 349.545,341.083 341.5,347C 335.357,350.533 329.69,350.033 324.5,345.5C 322.1,342.097 319.1,339.43 315.5,337.5C 315.5,337.167 315.5,336.833 315.5,336.5C 314.833,335.167 313.833,334.167 312.5,333.5C 310.878,332.878 309.545,331.878 308.5,330.5C 308.573,328.973 307.906,327.973 306.5,327.5C 305.833,326.167 304.833,325.167 303.5,324.5C 299.773,319.77 295.44,315.77 290.5,312.5C 289.662,312.158 289.328,311.492 289.5,310.5C 285.108,305.106 280.108,300.439 274.5,296.5C 274.262,294.596 273.262,293.262 271.5,292.5C 270.089,290.086 268.089,288.419 265.5,287.5C 265.5,287.167 265.5,286.833 265.5,286.5C 264.833,285.167 263.833,284.167 262.5,283.5C 261.738,281.738 260.404,280.738 258.5,280.5C 258.573,278.973 257.906,277.973 256.5,277.5C 255.089,275.086 253.089,273.419 250.5,272.5C 249.761,272.369 249.094,272.536 248.5,273C 223.805,298.028 198.805,322.695 173.5,347C 160.195,351.675 152.195,347.009 149.5,333C 149.839,330.133 150.839,327.633 152.5,325.5C 154.167,324.5 155.5,323.167 156.5,321.5C 158.833,319.833 160.833,317.833 162.5,315.5C 163.833,314.833 164.833,313.833 165.5,312.5C 165.5,311.167 166.167,310.5 167.5,310.5C 170.833,307.833 173.833,304.833 176.5,301.5C 180.5,298.167 184.167,294.5 187.5,290.5C 189.5,289.167 191.167,287.5 192.5,285.5C 195.167,283.5 197.5,281.167 199.5,278.5C 204.167,274.5 208.5,270.167 212.5,265.5C 213.833,264.833 214.833,263.833 215.5,262.5C 219.898,259.105 223.564,255.105 226.5,250.5C 226.443,249.391 226.11,248.391 225.5,247.5C 223.167,243.167 219.833,239.833 215.5,237.5C 215.5,237.167 215.5,236.833 215.5,236.5C 214.833,235.167 213.833,234.167 212.5,233.5C 208.773,228.77 204.44,224.77 199.5,221.5C 199.5,221.167 199.5,220.833 199.5,220.5C 197.761,217.757 195.427,215.757 192.5,214.5C 191.833,213.833 191.167,213.167 190.5,212.5C 190.262,210.596 189.262,209.262 187.5,208.5C 184.437,204.434 180.771,201.101 176.5,198.5C 176.5,198.167 176.5,197.833 176.5,197.5C 174.1,194.097 171.1,191.43 167.5,189.5C 166.449,188.778 165.782,187.778 165.5,186.5C 164.833,185.167 163.833,184.167 162.5,183.5C 161.738,181.738 160.404,180.738 158.5,180.5C 158.573,178.973 157.906,177.973 156.5,177.5C 155.5,175.833 154.167,174.5 152.5,173.5C 149.255,168.977 148.922,164.31 151.5,159.5C 152.906,159.027 153.573,158.027 153.5,156.5C 154.833,155.833 155.833,154.833 156.5,153.5C 156.973,152.094 157.973,151.427 159.5,151.5C 162.482,151.037 165.482,150.704 168.5,150.5C 170.553,150.402 172.22,151.069 173.5,152.5C 175.239,155.243 177.573,157.243 180.5,158.5C 181.5,158.833 182.167,159.5 182.5,160.5C 183.167,163.167 184.833,164.833 187.5,165.5C 188.5,165.833 189.167,166.5 189.5,167.5C 190.833,170.833 193.167,173.167 196.5,174.5C 197.5,174.833 198.167,175.5 198.5,176.5C 199.833,179.833 202.167,182.167 205.5,183.5C 206.5,183.833 207.167,184.5 207.5,185.5C 208.167,188.167 209.833,189.833 212.5,190.5C 213.5,190.833 214.167,191.5 214.5,192.5C 215.833,195.833 218.167,198.167 221.5,199.5C 222.5,199.833 223.167,200.5 223.5,201.5C 224.833,204.833 227.167,207.167 230.5,208.5C 231.5,208.833 232.167,209.5 232.5,210.5C 233.167,213.167 234.833,214.833 237.5,215.5C 238.5,215.833 239.167,216.5 239.5,217.5C 240.833,220.833 243.167,223.167 246.5,224.5C 247.167,224.5 247.5,224.833 247.5,225.5C 251.577,227.173 254.577,225.84 256.5,221.5C 258.833,219.833 260.833,217.833 262.5,215.5C 263.833,214.833 264.833,213.833 265.5,212.5C 267.833,210.833 269.833,208.833 271.5,206.5C 277.833,200.833 283.833,194.833 289.5,188.5C 294.5,184.167 299.167,179.5 303.5,174.5C 304.833,173.833 305.833,172.833 306.5,171.5C 308.167,170.5 309.5,169.167 310.5,167.5C 310.5,166.167 311.167,165.5 312.5,165.5C 313.833,164.833 314.833,163.833 315.5,162.5C 318.833,159.833 321.833,156.833 324.5,153.5C 333.034,147.507 340.534,148.84 347,157.5C 350.633,163.659 350.133,169.326 345.5,174.5 Z"/></g>
<g><path style="opacity:0.004" fill="#bdbdbd" d="M 173.5,152.5 C 176.427,153.757 178.761,155.757 180.5,158.5C 177.573,157.243 175.239,155.243 173.5,152.5 Z"/></g>
<g><path style="opacity:0.349" fill="#bababa" d="M 156.5,153.5 C 155.833,154.833 154.833,155.833 153.5,156.5C 153.5,154.5 154.5,153.5 156.5,153.5 Z"/></g>
<g><path style="opacity:0.451" fill="#aaaaaa" d="M 324.5,153.5 C 321.833,156.833 318.833,159.833 315.5,162.5C 317.5,158.5 320.5,155.5 324.5,153.5 Z"/></g>
<g><path style="opacity:0.482" fill="#8c8c8c" d="M 153.5,156.5 C 153.573,158.027 152.906,159.027 151.5,159.5C 151.427,157.973 152.094,156.973 153.5,156.5 Z"/></g>
<g><path style="opacity:0.722" fill="#a7a7a7" d="M 182.5,160.5 C 184.5,161.833 186.167,163.5 187.5,165.5C 184.833,164.833 183.167,163.167 182.5,160.5 Z"/></g>
<g><path style="opacity:0.451" fill="#aeaeae" d="M 315.5,162.5 C 314.833,163.833 313.833,164.833 312.5,165.5C 312.5,163.5 313.5,162.5 315.5,162.5 Z"/></g>
<g><path style="opacity:0.725" fill="#aaaaaa" d="M 189.5,167.5 C 192.167,169.5 194.5,171.833 196.5,174.5C 193.167,173.167 190.833,170.833 189.5,167.5 Z"/></g>
<g><path style="opacity:0.467" fill="#a5a5a5" d="M 310.5,167.5 C 309.5,169.167 308.167,170.5 306.5,171.5C 306.833,169.167 308.167,167.833 310.5,167.5 Z"/></g>
<g><path style="opacity:0.455" fill="#aeaeae" d="M 306.5,171.5 C 305.833,172.833 304.833,173.833 303.5,174.5C 303.5,172.5 304.5,171.5 306.5,171.5 Z"/></g>
<g><path style="opacity:0.004" fill="#c8c8c8" d="M 152.5,173.5 C 154.167,174.5 155.5,175.833 156.5,177.5C 154.167,177.167 152.833,175.833 152.5,173.5 Z"/></g>
<g><path style="opacity:0.016" fill="#c4c4c4" d="M 345.5,174.5 C 345.573,176.027 344.906,177.027 343.5,177.5C 343.427,175.973 344.094,174.973 345.5,174.5 Z"/></g>
<g><path style="opacity:0.722" fill="#aaaaaa" d="M 198.5,176.5 C 201.167,178.5 203.5,180.833 205.5,183.5C 202.167,182.167 199.833,179.833 198.5,176.5 Z"/></g>
<g><path style="opacity:0.008" fill="#cdcdcd" d="M 156.5,177.5 C 157.906,177.973 158.573,178.973 158.5,180.5C 157.094,180.027 156.427,179.027 156.5,177.5 Z"/></g>
<g><path style="opacity:0.447" fill="#a4a4a4" d="M 303.5,174.5 C 299.167,179.5 294.5,184.167 289.5,188.5C 293.167,182.833 297.833,178.167 303.5,174.5 Z"/></g>
<g><path style="opacity:0.631" fill="#9c9c9c" d="M 158.5,180.5 C 160.404,180.738 161.738,181.738 162.5,183.5C 160.596,183.262 159.262,182.262 158.5,180.5 Z"/></g>
<g><path style="opacity:0.004" fill="#c1c1c1" d="M 162.5,183.5 C 163.833,184.167 164.833,185.167 165.5,186.5C 163.5,186.5 162.5,185.5 162.5,183.5 Z"/></g>
<g><path style="opacity:0.725" fill="#a7a7a7" d="M 207.5,185.5 C 209.5,186.833 211.167,188.5 212.5,190.5C 209.833,189.833 208.167,188.167 207.5,185.5 Z"/></g>
<g><path style="opacity:0.639" fill="#b1b1b1" d="M 167.5,189.5 C 171.1,191.43 174.1,194.097 176.5,197.5C 172.9,195.57 169.9,192.903 167.5,189.5 Z"/></g>
<g><path style="opacity:0.714" fill="#aaaaaa" d="M 214.5,192.5 C 217.167,194.5 219.5,196.833 221.5,199.5C 218.167,198.167 215.833,195.833 214.5,192.5 Z"/></g>
<g><path style="opacity:0.459" fill="#a8a8a8" d="M 289.5,188.5 C 283.833,194.833 277.833,200.833 271.5,206.5C 276.5,199.5 282.5,193.5 289.5,188.5 Z"/></g>
<g><path style="opacity:0.624" fill="#b0b0b0" d="M 176.5,198.5 C 180.771,201.101 184.437,204.434 187.5,208.5C 183.229,205.899 179.563,202.566 176.5,198.5 Z"/></g>
<g><path style="opacity:0.722" fill="#aaaaaa" d="M 223.5,201.5 C 226.167,203.5 228.5,205.833 230.5,208.5C 227.167,207.167 224.833,204.833 223.5,201.5 Z"/></g>
<g><path style="opacity:0.004" fill="#cacaca" d="M 187.5,208.5 C 189.262,209.262 190.262,210.596 190.5,212.5C 188.738,211.738 187.738,210.404 187.5,208.5 Z"/></g>
<g><path style="opacity:0.635" fill="#989898" d="M 271.5,206.5 C 269.833,208.833 267.833,210.833 265.5,212.5C 266.5,209.5 268.5,207.5 271.5,206.5 Z"/></g>
<g><path style="opacity:0.733" fill="#a6a6a6" d="M 232.5,210.5 C 234.5,211.833 236.167,213.5 237.5,215.5C 234.833,214.833 233.167,213.167 232.5,210.5 Z"/></g>
<g><path style="opacity:0.459" fill="#aeaeae" d="M 265.5,212.5 C 264.833,213.833 263.833,214.833 262.5,215.5C 262.5,213.5 263.5,212.5 265.5,212.5 Z"/></g>
<g><path style="opacity:0.624" fill="#b5b5b5" d="M 192.5,214.5 C 195.427,215.757 197.761,217.757 199.5,220.5C 196.573,219.243 194.239,217.243 192.5,214.5 Z"/></g>
<g><path style="opacity:0.718" fill="#aaaaaa" d="M 239.5,217.5 C 242.167,219.5 244.5,221.833 246.5,224.5C 243.167,223.167 240.833,220.833 239.5,217.5 Z"/></g>
<g><path style="opacity:0.471" fill="#a7a7a7" d="M 262.5,215.5 C 260.833,217.833 258.833,219.833 256.5,221.5C 257.5,218.5 259.5,216.5 262.5,215.5 Z"/></g>
<g><path style="opacity:0.631" fill="#aeaeae" d="M 199.5,221.5 C 204.44,224.77 208.773,228.77 212.5,233.5C 207.56,230.23 203.227,226.23 199.5,221.5 Z"/></g>
<g><path style="opacity:0.447" fill="#bbbbbb" d="M 256.5,221.5 C 254.577,225.84 251.577,227.173 247.5,225.5C 248.847,224.829 250.014,224.829 251,225.5C 252.451,223.536 254.284,222.203 256.5,221.5 Z"/></g>
<g><path style="opacity:0.008" fill="#c1c1c1" d="M 212.5,233.5 C 213.833,234.167 214.833,235.167 215.5,236.5C 213.5,236.5 212.5,235.5 212.5,233.5 Z"/></g>
<g><path style="opacity:0.627" fill="#b4b4b4" d="M 215.5,237.5 C 219.833,239.833 223.167,243.167 225.5,247.5C 221.833,244.5 218.5,241.167 215.5,237.5 Z"/></g>
<g><path style="opacity:0.788" fill="#a4a4a4" d="M 272.5,250.5 C 275.5,252.833 278.167,255.5 280.5,258.5C 276.833,256.833 274.167,254.167 272.5,250.5 Z"/></g>
<g><path style="opacity:0.443" fill="#a2a2a2" d="M 226.5,250.5 C 223.564,255.105 219.898,259.105 215.5,262.5C 218.436,257.895 222.102,253.895 226.5,250.5 Z"/></g>
<g><path style="opacity:0.725" fill="#a7a7a7" d="M 282.5,260.5 C 284.5,261.833 286.167,263.5 287.5,265.5C 284.833,264.833 283.167,263.167 282.5,260.5 Z"/></g>
<g><path style="opacity:0.455" fill="#aeaeae" d="M 215.5,262.5 C 214.833,263.833 213.833,264.833 212.5,265.5C 212.5,263.5 213.5,262.5 215.5,262.5 Z"/></g>
<g><path style="opacity:0.714" fill="#aaaaaa" d="M 289.5,267.5 C 292.167,269.5 294.5,271.833 296.5,274.5C 293.167,273.167 290.833,270.833 289.5,267.5 Z"/></g>
<g><path style="opacity:0.447" fill="#a5a5a5" d="M 212.5,265.5 C 208.5,270.167 204.167,274.5 199.5,278.5C 202.833,273.167 207.167,268.833 212.5,265.5 Z"/></g>
<g><path style="opacity:0.698" fill="#aaaaaa" d="M 250.5,272.5 C 253.089,273.419 255.089,275.086 256.5,277.5C 253.911,276.581 251.911,274.914 250.5,272.5 Z"/></g>
<g><path style="opacity:0.722" fill="#aaaaaa" d="M 298.5,276.5 C 301.167,278.5 303.5,280.833 305.5,283.5C 302.167,282.167 299.833,279.833 298.5,276.5 Z"/></g>
<g><path style="opacity:0.012" fill="#cdcdcd" d="M 256.5,277.5 C 257.906,277.973 258.573,278.973 258.5,280.5C 257.094,280.027 256.427,279.027 256.5,277.5 Z"/></g>
<g><path style="opacity:0.635" fill="#9b9b9b" d="M 258.5,280.5 C 260.404,280.738 261.738,281.738 262.5,283.5C 260.596,283.262 259.262,282.262 258.5,280.5 Z"/></g>
<g><path style="opacity:0.455" fill="#aaaaaa" d="M 199.5,278.5 C 197.5,281.167 195.167,283.5 192.5,285.5C 193.833,282.167 196.167,279.833 199.5,278.5 Z"/></g>
<g><path style="opacity:0.004" fill="#c1c1c1" d="M 262.5,283.5 C 263.833,284.167 264.833,285.167 265.5,286.5C 263.5,286.5 262.5,285.5 262.5,283.5 Z"/></g>
<g><path style="opacity:0.725" fill="#a7a7a7" d="M 307.5,285.5 C 309.5,286.833 311.167,288.5 312.5,290.5C 309.833,289.833 308.167,288.167 307.5,285.5 Z"/></g>
<g><path style="opacity:0.471" fill="#a9a9a9" d="M 192.5,285.5 C 191.167,287.5 189.5,289.167 187.5,290.5C 188.167,287.833 189.833,286.167 192.5,285.5 Z"/></g>
<g><path style="opacity:0.631" fill="#a9a9a9" d="M 265.5,287.5 C 268.089,288.419 270.089,290.086 271.5,292.5C 268.911,291.581 266.911,289.914 265.5,287.5 Z"/></g>
<g><path style="opacity:0.008" fill="#c9c9c9" d="M 271.5,292.5 C 273.262,293.262 274.262,294.596 274.5,296.5C 272.738,295.738 271.738,294.404 271.5,292.5 Z"/></g>
<g><path style="opacity:0.718" fill="#aaaaaa" d="M 314.5,292.5 C 317.167,294.5 319.5,296.833 321.5,299.5C 318.167,298.167 315.833,295.833 314.5,292.5 Z"/></g>
<g><path style="opacity:0.631" fill="#b1b1b1" d="M 274.5,296.5 C 280.108,300.439 285.108,305.106 289.5,310.5C 283.892,306.561 278.892,301.894 274.5,296.5 Z"/></g>
<g><path style="opacity:0.447" fill="#a8a8a8" d="M 187.5,290.5 C 184.167,294.5 180.5,298.167 176.5,301.5C 179.167,296.833 182.833,293.167 187.5,290.5 Z"/></g>
<g><path style="opacity:0.722" fill="#aaaaaa" d="M 323.5,301.5 C 326.167,303.5 328.5,305.833 330.5,308.5C 327.167,307.167 324.833,304.833 323.5,301.5 Z"/></g>
<g><path style="opacity:0.467" fill="#a7a7a7" d="M 176.5,301.5 C 173.833,304.833 170.833,307.833 167.5,310.5C 169.5,306.5 172.5,303.5 176.5,301.5 Z"/></g>
<g><path style="opacity:0.725" fill="#a7a7a7" d="M 332.5,310.5 C 334.5,311.833 336.167,313.5 337.5,315.5C 334.833,314.833 333.167,313.167 332.5,310.5 Z"/></g>
<g><path style="opacity:0.624" fill="#aeaeae" d="M 290.5,312.5 C 295.44,315.77 299.773,319.77 303.5,324.5C 298.56,321.23 294.227,317.23 290.5,312.5 Z"/></g>
<g><path style="opacity:0.455" fill="#aeaeae" d="M 165.5,312.5 C 164.833,313.833 163.833,314.833 162.5,315.5C 162.5,313.5 163.5,312.5 165.5,312.5 Z"/></g>
<g><path style="opacity:0.722" fill="#aaaaaa" d="M 339.5,317.5 C 342.573,319.569 344.906,322.236 346.5,325.5C 343.427,323.431 341.094,320.764 339.5,317.5 Z"/></g>
<g><path style="opacity:0.467" fill="#a4a4a4" d="M 162.5,315.5 C 160.833,317.833 158.833,319.833 156.5,321.5C 157.5,318.5 159.5,316.5 162.5,315.5 Z"/></g>
<g><path style="opacity:0.451" fill="#b5b5b5" d="M 156.5,321.5 C 155.5,323.167 154.167,324.5 152.5,325.5C 152.833,323.167 154.167,321.833 156.5,321.5 Z"/></g>
<g><path style="opacity:0.008" fill="#c1c1c1" d="M 303.5,324.5 C 304.833,325.167 305.833,326.167 306.5,327.5C 304.5,327.5 303.5,326.5 303.5,324.5 Z"/></g>
<g><path style="opacity:0.008" fill="#cdcdcd" d="M 306.5,327.5 C 307.906,327.973 308.573,328.973 308.5,330.5C 307.094,330.027 306.427,329.027 306.5,327.5 Z"/></g>
<g><path style="opacity:0.012" fill="#c0c0c0" d="M 312.5,333.5 C 313.833,334.167 314.833,335.167 315.5,336.5C 313.5,336.5 312.5,335.5 312.5,333.5 Z"/></g>
<g><path style="opacity:0.624" fill="#b3b3b3" d="M 315.5,337.5 C 319.1,339.43 322.1,342.097 324.5,345.5C 320.9,343.57 317.9,340.903 315.5,337.5 Z"/></g>
</svg>
